<svg width="181" height="29" viewBox="0 0 181 29" fill="none" xmlns="http://www.w3.org/2000/svg">
<path d="M13.7129 20.9248H18.0928C18.0049 22.3604 17.6094 23.6348 16.9062 24.748C16.2129 25.8613 15.2412 26.7305 13.9912 27.3555C12.751 27.9805 11.2568 28.293 9.50879 28.293C8.1416 28.293 6.91602 28.0586 5.83203 27.5898C4.74805 27.1113 3.82031 26.4277 3.04883 25.5391C2.28711 24.6504 1.70605 23.5762 1.30566 22.3164C0.905273 21.0566 0.705078 19.6455 0.705078 18.083V16.6035C0.705078 15.041 0.910156 13.6299 1.32031 12.3701C1.74023 11.1006 2.33594 10.0215 3.10742 9.13281C3.88867 8.24414 4.82129 7.56055 5.90527 7.08203C6.98926 6.60352 8.2002 6.36426 9.53809 6.36426C11.3154 6.36426 12.8145 6.68652 14.0352 7.33105C15.2656 7.97559 16.2178 8.86426 16.8916 9.99707C17.5752 11.1299 17.9854 12.4189 18.1221 13.8643H13.7275C13.6787 13.0049 13.5078 12.2773 13.2148 11.6816C12.9219 11.0762 12.4775 10.6221 11.8818 10.3193C11.2959 10.0068 10.5146 9.85059 9.53809 9.85059C8.80566 9.85059 8.16602 9.9873 7.61914 10.2607C7.07227 10.5342 6.61328 10.9492 6.24219 11.5059C5.87109 12.0625 5.59277 12.7656 5.40723 13.6152C5.23145 14.4551 5.14355 15.4414 5.14355 16.5742V18.083C5.14355 19.1865 5.22656 20.1582 5.39258 20.998C5.55859 21.8281 5.8125 22.5312 6.1543 23.1074C6.50586 23.6738 6.95508 24.1035 7.50195 24.3965C8.05859 24.6797 8.72754 24.8213 9.50879 24.8213C10.4268 24.8213 11.1836 24.6748 11.7793 24.3818C12.375 24.0889 12.8291 23.6543 13.1416 23.0781C13.4639 22.502 13.6543 21.7842 13.7129 20.9248ZM29.6504 10.3193L23.8496 28H19.1768L27.1016 6.67188H30.0752L29.6504 10.3193ZM34.4697 28L28.6543 10.3193L28.1855 6.67188H31.1885L39.1572 28H34.4697ZM34.2061 20.0605V23.5029H22.9414V20.0605H34.2061ZM54.8457 24.5723V28H44.1084V24.5723H54.8457ZM45.5293 6.67188V28H41.1348V6.67188H45.5293ZM71.6768 24.5723V28H60.3242V24.5723H71.6768ZM61.7598 6.67188V28H57.3652V6.67188H61.7598ZM70.1973 15.3584V18.6982H60.3242V15.3584H70.1973ZM71.6621 6.67188V10.1143H60.3242V6.67188H71.6621ZM91.5986 6.67188V28H87.2041L78.6348 13.7031V28H74.2402V6.67188H78.6348L87.2188 20.9834V6.67188H91.5986ZM101.97 28H97.3262L97.3555 24.5723H101.97C103.122 24.5723 104.094 24.3135 104.885 23.7959C105.676 23.2686 106.271 22.502 106.672 21.4961C107.082 20.4902 107.287 19.2744 107.287 17.8486V16.8086C107.287 15.7148 107.17 14.7529 106.936 13.9229C106.711 13.0928 106.374 12.3945 105.925 11.8281C105.476 11.2617 104.924 10.8369 104.27 10.5537C103.615 10.2607 102.863 10.1143 102.014 10.1143H97.2383V6.67188H102.014C103.439 6.67188 104.743 6.91602 105.925 7.4043C107.116 7.88281 108.146 8.57129 109.016 9.46973C109.885 10.3682 110.554 11.4424 111.022 12.6924C111.501 13.9326 111.74 15.3145 111.74 16.8379V17.8486C111.74 19.3623 111.501 20.7441 111.022 21.9941C110.554 23.2441 109.885 24.3184 109.016 25.2168C108.156 26.1055 107.126 26.7939 105.925 27.2822C104.733 27.7607 103.415 28 101.97 28ZM99.8164 6.67188V28H95.4219V6.67188H99.8164ZM123.283 10.3193L117.482 28H112.81L120.734 6.67188H123.708L123.283 10.3193ZM128.103 28L122.287 10.3193L121.818 6.67188H124.821L132.79 28H128.103ZM127.839 20.0605V23.5029H116.574V20.0605H127.839ZM120.808 5.4707L123.679 0.958984H128.264L124.235 5.4707H120.808ZM134.768 6.67188H142.722C144.353 6.67188 145.754 6.91602 146.926 7.4043C148.107 7.89258 149.016 8.61523 149.65 9.57227C150.285 10.5293 150.603 11.7061 150.603 13.1025C150.603 14.2451 150.407 15.2266 150.017 16.0469C149.636 16.8574 149.094 17.5361 148.391 18.083C147.697 18.6201 146.882 19.0498 145.944 19.3721L144.553 20.1045H137.639L137.609 16.6768H142.751C143.522 16.6768 144.162 16.54 144.67 16.2666C145.178 15.9932 145.559 15.6123 145.812 15.124C146.076 14.6357 146.208 14.0693 146.208 13.4248C146.208 12.7412 146.081 12.1504 145.827 11.6523C145.573 11.1543 145.188 10.7734 144.67 10.5098C144.152 10.2461 143.503 10.1143 142.722 10.1143H139.162V28H134.768V6.67188ZM146.691 28L141.828 18.4932L146.472 18.4639L151.394 27.7949V28H146.691ZM158.659 6.67188V28H154.279V6.67188H158.659ZM180.295 16.8379V17.8486C180.295 19.4697 180.075 20.9248 179.636 22.2139C179.196 23.5029 178.576 24.6016 177.775 25.5098C176.975 26.4082 176.018 27.0967 174.904 27.5752C173.801 28.0537 172.575 28.293 171.228 28.293C169.89 28.293 168.664 28.0537 167.551 27.5752C166.447 27.0967 165.49 26.4082 164.68 25.5098C163.869 24.6016 163.239 23.5029 162.79 22.2139C162.351 20.9248 162.131 19.4697 162.131 17.8486V16.8379C162.131 15.207 162.351 13.752 162.79 12.4727C163.229 11.1836 163.85 10.085 164.65 9.17676C165.461 8.26855 166.418 7.5752 167.521 7.09668C168.635 6.61816 169.86 6.37891 171.198 6.37891C172.546 6.37891 173.771 6.61816 174.875 7.09668C175.988 7.5752 176.945 8.26855 177.746 9.17676C178.557 10.085 179.182 11.1836 179.621 12.4727C180.07 13.752 180.295 15.207 180.295 16.8379ZM175.856 17.8486V16.8086C175.856 15.6758 175.754 14.6797 175.549 13.8203C175.344 12.9609 175.041 12.2383 174.641 11.6523C174.24 11.0664 173.752 10.627 173.176 10.334C172.6 10.0312 171.94 9.87988 171.198 9.87988C170.456 9.87988 169.797 10.0312 169.221 10.334C168.654 10.627 168.171 11.0664 167.771 11.6523C167.38 12.2383 167.082 12.9609 166.877 13.8203C166.672 14.6797 166.569 15.6758 166.569 16.8086V17.8486C166.569 18.9717 166.672 19.9678 166.877 20.8369C167.082 21.6963 167.385 22.4238 167.785 23.0195C168.186 23.6055 168.674 24.0498 169.25 24.3525C169.826 24.6553 170.485 24.8066 171.228 24.8066C171.97 24.8066 172.629 24.6553 173.205 24.3525C173.781 24.0498 174.265 23.6055 174.655 23.0195C175.046 22.4238 175.344 21.6963 175.549 20.8369C175.754 19.9678 175.856 18.9717 175.856 17.8486Z" fill="url(#paint0_linear_122_262)"/>
<defs>
<linearGradient id="paint0_linear_122_262" x1="90.5" y1="-1" x2="90.5" y2="37" gradientUnits="userSpaceOnUse">
<stop stop-color="white"/>
<stop offset="1" stop-color="#D9D9D9" stop-opacity="0.8"/>
</linearGradient>
</defs>
</svg>
